<mxfile host="app.diagrams.net" modified="2022-05-24T01:58:36.294Z" agent="5.0 (Windows NT 10.0; Win64; x64) AppleWebKit/537.36 (KHTML, like Gecko) Chrome/101.0.4951.67 Safari/537.36" etag="4QOsrQ9mPrRg80DsZzht" version="17.4.6" type="github">
  <diagram id="Bkxy50IKsiNKSiQMQ5GI" name="第 1 页">
    <mxGraphModel dx="1422" dy="762" grid="1" gridSize="10" guides="1" tooltips="1" connect="1" arrows="1" fold="1" page="1" pageScale="1" pageWidth="850" pageHeight="1100" math="0" shadow="0">
      <root>
        <mxCell id="0" />
        <mxCell id="1" parent="0" />
        <mxCell id="oga4YW_WkxTU_n4CCLQq-3" value="" style="swimlane;startSize=0;" vertex="1" parent="1">
          <mxGeometry x="420" y="170" width="370" height="490" as="geometry" />
        </mxCell>
        <mxCell id="oga4YW_WkxTU_n4CCLQq-4" value="PPDM&lt;br&gt;192.168.0.12" style="rounded=1;whiteSpace=wrap;html=1;" vertex="1" parent="oga4YW_WkxTU_n4CCLQq-3">
          <mxGeometry x="90" y="80" width="160" height="90" as="geometry" />
        </mxCell>
        <mxCell id="oga4YW_WkxTU_n4CCLQq-8" style="edgeStyle=orthogonalEdgeStyle;shape=link;rounded=0;orthogonalLoop=1;jettySize=auto;html=1;exitX=0.5;exitY=0;exitDx=0;exitDy=0;entryX=0.5;entryY=1;entryDx=0;entryDy=0;strokeWidth=1;dashed=1;" edge="1" parent="oga4YW_WkxTU_n4CCLQq-3" source="oga4YW_WkxTU_n4CCLQq-5" target="oga4YW_WkxTU_n4CCLQq-4">
          <mxGeometry relative="1" as="geometry" />
        </mxCell>
        <mxCell id="oga4YW_WkxTU_n4CCLQq-5" value="PPOE&lt;br&gt;10.0.0.11&lt;br&gt;192.168.0.11" style="rounded=1;whiteSpace=wrap;html=1;" vertex="1" parent="oga4YW_WkxTU_n4CCLQq-3">
          <mxGeometry x="90" y="250" width="160" height="90" as="geometry" />
        </mxCell>
        <mxCell id="oga4YW_WkxTU_n4CCLQq-7" style="edgeStyle=orthogonalEdgeStyle;rounded=0;orthogonalLoop=1;jettySize=auto;html=1;exitX=1;exitY=0.5;exitDx=0;exitDy=0;strokeWidth=1;shape=link;dashed=1;" edge="1" parent="1" source="oga4YW_WkxTU_n4CCLQq-6" target="oga4YW_WkxTU_n4CCLQq-5">
          <mxGeometry relative="1" as="geometry" />
        </mxCell>
        <mxCell id="oga4YW_WkxTU_n4CCLQq-6" value="Test Driver&lt;br&gt;10.0.0.11" style="rounded=1;whiteSpace=wrap;html=1;" vertex="1" parent="1">
          <mxGeometry x="160" y="420" width="160" height="90" as="geometry" />
        </mxCell>
      </root>
    </mxGraphModel>
  </diagram>
</mxfile>
